<?xml version="1.0" encoding="UTF-8" standalone="no"?>
<!-- Created with Inkscape (http://www.inkscape.org/) -->

<svg
   version="1.1"
   id="svg1"
   width="420"
   height="66.666664"
   viewBox="0 0 420 66.666664"
   sodipodi:docname="1be73a28-8bce-49f6-8a34-ec1cbcbcb0e3.eps"
   xmlns:inkscape="http://www.inkscape.org/namespaces/inkscape"
   xmlns:sodipodi="http://sodipodi.sourceforge.net/DTD/sodipodi-0.dtd"
   xmlns="http://www.w3.org/2000/svg"
   xmlns:svg="http://www.w3.org/2000/svg">
  <defs
     id="defs1" />
  <sodipodi:namedview
     id="namedview1"
     pagecolor="#ffffff"
     bordercolor="#000000"
     borderopacity="0.25"
     inkscape:showpageshadow="2"
     inkscape:pageopacity="0.0"
     inkscape:pagecheckerboard="0"
     inkscape:deskcolor="#d1d1d1">
    <inkscape:page
       x="0"
       y="0"
       inkscape:label="1"
       id="page1"
       width="420"
       height="66.666664"
       margin="0"
       bleed="0" />
  </sodipodi:namedview>
  <g
     id="g1"
     inkscape:groupmode="layer"
     inkscape:label="1">
    <path
       id="path1"
       d="M 721.84,74.8789 V 121.449 L 709.141,74.8789 H 695 L 682.422,121.211 V 74.8789 h -13.203 v 67.9301 h 20.902 l 12.258,-49.7973 12.269,49.7973 h 20.473 V 74.8789 Z"
       style="fill:#eaaa00;fill-opacity:1;fill-rule:nonzero;stroke:none"
       transform="matrix(0.13333333,0,0,-0.13333333,0,66.666667)" />
    <path
       id="path2"
       d="m 767.301,74.8789 h 14.2188 v 67.9297 H 767.301 Z"
       style="fill:#eaaa00;fill-opacity:1;fill-rule:nonzero;stroke:none"
       transform="matrix(0.13333333,0,0,-0.13333333,0,66.666667)" />
    <path
       id="path3"
       d="M 855.352,74.8789 826.289,120.512 V 74.8789 H 813.09 v 67.9301 h 15.031 L 855.16,99.1406 v 43.6684 h 13.32 V 74.8789 Z"
       style="fill:#eaaa00;fill-opacity:1;fill-rule:nonzero;stroke:none"
       transform="matrix(0.13333333,0,0,-0.13333333,0,66.666667)" />
    <path
       id="path4"
       d="m 927.66,86.4492 c 6.211,0 10.699,1.9102 13.512,5.7813 2.777,3.8593 4.18,9.6485 4.18,17.3395 0,3.828 -0.352,7.071 -1.012,9.809 -0.711,2.73 -1.801,4.961 -3.32,6.711 -1.571,1.719 -3.52,3.012 -5.899,3.789 -2.391,0.781 -5.281,1.172 -8.711,1.172 H 915.898 V 86.4492 Z M 902.07,74.8789 v 67.9301 h 26.289 c 4.571,0 8.789,-0.739 12.692,-2.297 3.871,-1.532 7.23,-3.711 9.969,-6.602 2.769,-2.859 4.921,-6.332 6.519,-10.43 1.563,-4.101 2.34,-8.71 2.34,-13.91 0,-5.191 -0.699,-9.9216 -2.109,-14.1794 -1.399,-4.2617 -3.391,-7.9297 -5.969,-10.9414 -2.582,-3.039 -5.711,-5.3906 -9.301,-7.0703 -3.629,-1.6797 -7.621,-2.5 -11.988,-2.5 z"
       style="fill:#eaaa00;fill-opacity:1;fill-rule:nonzero;stroke:none"
       transform="matrix(0.13333333,0,0,-0.13333333,0,66.666667)" />
    <path
       id="path5"
       d="m 992.422,74.8789 v 67.9301 h 49.918 v -11.868 h -36.13 V 116.41 h 33.28 v -11.961 h -33.28 V 86.9492 h 37.77 V 74.8789 Z"
       style="fill:#eaaa00;fill-opacity:1;fill-rule:nonzero;stroke:none"
       transform="matrix(0.13333333,0,0,-0.13333333,0,66.666667)" />
    <path
       id="path6"
       d="m 1117.11,74.8789 -29.06,45.6331 V 74.8789 h -13.21 v 67.9301 h 15.04 l 27.03,-43.6684 v 43.6684 h 13.29 V 74.8789 Z"
       style="fill:#eaaa00;fill-opacity:1;fill-rule:nonzero;stroke:none"
       transform="matrix(0.13333333,0,0,-0.13333333,0,66.666667)" />
    <path
       id="path7"
       d="m 1245.16,127.578 h -0.12 l -8.67,-27.027 h 17.26 z m 16.87,-52.6991 -4.3,14.0313 h -25.07 l -4.81,-14.0313 h -15.04 l 24.26,67.9301 h 16.48 l 23.95,-67.9301 z"
       style="fill:#eaaa00;fill-opacity:1;fill-rule:nonzero;stroke:none"
       transform="matrix(0.13333333,0,0,-0.13333333,0,66.666667)" />
    <path
       id="path8"
       d="m 1362.38,74.8789 v 46.5701 l -12.69,-46.5701 h -14.1 l -12.62,46.3321 V 74.8789 h -13.2 v 67.9301 h 20.89 l 12.27,-49.7973 12.27,49.7973 h 20.46 V 74.8789 Z"
       style="fill:#eaaa00;fill-opacity:1;fill-rule:nonzero;stroke:none"
       transform="matrix(0.13333333,0,0,-0.13333333,0,66.666667)" />
    <path
       id="path9"
       d="m 1407.85,74.8789 h 14.2188 v 67.9297 H 1407.85 Z"
       style="fill:#eaaa00;fill-opacity:1;fill-rule:nonzero;stroke:none"
       transform="matrix(0.13333333,0,0,-0.13333333,0,66.666667)" />
    <path
       id="path10"
       d="m 1525.55,74.8789 -23.01,67.9301 h 15.16 l 14.84,-47.6488 14.73,47.6488 h 14.72 l -23.01,-67.9301 z"
       style="fill:#eaaa00;fill-opacity:1;fill-rule:nonzero;stroke:none"
       transform="matrix(0.13333333,0,0,-0.13333333,0,66.666667)" />
    <path
       id="path11"
       d="m 1591.76,74.8789 h 14.2188 v 67.9297 H 1591.76 Z"
       style="fill:#eaaa00;fill-opacity:1;fill-rule:nonzero;stroke:none"
       transform="matrix(0.13333333,0,0,-0.13333333,0,66.666667)" />
    <path
       id="path12"
       d="m 1637.19,74.8789 v 67.9301 h 14.22 V 87.2695 h 33.67 V 74.8789 Z"
       style="fill:#eaaa00;fill-opacity:1;fill-rule:nonzero;stroke:none"
       transform="matrix(0.13333333,0,0,-0.13333333,0,66.666667)" />
    <path
       id="path13"
       d="m 1715.98,74.8789 v 67.9301 h 14.22 V 87.2695 h 33.67 V 74.8789 Z"
       style="fill:#eaaa00;fill-opacity:1;fill-rule:nonzero;stroke:none"
       transform="matrix(0.13333333,0,0,-0.13333333,0,66.666667)" />
    <path
       id="path14"
       d="m 1825.62,127.578 h -0.07 l -8.71,-27.027 h 17.3 z m 16.92,-52.6991 -4.3,14.0313 h -25.08 l -4.8,-14.0313 h -15.04 l 24.26,67.9301 h 16.44 l 23.95,-67.9301 z"
       style="fill:#eaaa00;fill-opacity:1;fill-rule:nonzero;stroke:none"
       transform="matrix(0.13333333,0,0,-0.13333333,0,66.666667)" />
    <path
       id="path15"
       d="m 1932.03,74.8789 -29.06,45.6331 V 74.8789 h -13.2 v 67.9301 h 15.03 l 27.04,-43.6684 v 43.6684 h 13.32 V 74.8789 Z"
       style="fill:#eaaa00;fill-opacity:1;fill-rule:nonzero;stroke:none"
       transform="matrix(0.13333333,0,0,-0.13333333,0,66.666667)" />
    <path
       id="path16"
       d="m 2000.16,74.8789 v 25.6721 l -23.52,42.258 h 16.56 l 14.34,-27.61 13.2,27.61 h 16.37 l -22.73,-42.457 V 74.8789 Z"
       style="fill:#eaaa00;fill-opacity:1;fill-rule:nonzero;stroke:none"
       transform="matrix(0.13333333,0,0,-0.13333333,0,66.666667)" />
    <path
       id="path17"
       d="m 2102.81,122.77 c -0.35,3.48 -1.6,6.058 -3.79,7.781 -2.18,1.719 -5.47,2.539 -9.84,2.539 -8.05,0 -12.07,-2.738 -12.07,-8.289 0,-1.949 0.82,-3.629 2.5,-4.961 1.68,-1.32 4.37,-2.418 8.05,-3.32 4.37,-1.008 8.16,-1.989 11.36,-2.848 3.21,-0.902 6.14,-1.91 8.79,-3.082 1.49,-0.629 2.93,-1.371 4.26,-2.309 1.33,-0.902 2.46,-2.07 3.36,-3.441 0.94,-1.36 1.64,-2.961 2.19,-4.8791 0.54,-1.9101 0.82,-4.2617 0.82,-6.9492 0,-3.2812 -0.67,-6.2109 -2.03,-8.7109 -1.37,-2.5391 -3.21,-4.6524 -5.51,-6.4102 -2.35,-1.7187 -5.08,-3.0508 -8.2,-3.9804 -3.13,-0.9414 -6.45,-1.3711 -9.93,-1.3711 -9.88,0 -17.34,1.8711 -22.3,5.6992 -5,3.832 -7.62,9.4922 -7.89,16.9922 h 13.71 c 0.08,-3.4688 1.48,-6.211 4.26,-8.2422 2.77,-1.9883 6.21,-3.0078 10.39,-3.0078 4.49,0 7.89,0.8203 10.23,2.4687 2.31,1.6406 3.48,3.8594 3.48,6.6406 0,1.0899 -0.16,2.1094 -0.43,3 -0.27,0.9415 -0.78,1.7618 -1.56,2.5391 -0.78,0.75 -1.88,1.4101 -3.25,1.9921 -1.36,0.59 -3.12,1.098 -5.31,1.57 -5.19,1.09 -9.69,2.219 -13.48,3.321 -3.74,1.129 -6.87,2.539 -9.33,4.218 -2.46,1.68 -4.26,3.711 -5.43,6.09 -1.17,2.379 -1.76,5.391 -1.76,9.102 0,2.777 0.51,5.43 1.56,7.887 1.02,2.421 2.58,4.57 4.69,6.371 2.11,1.84 4.73,3.242 7.85,4.3 3.09,1.051 6.76,1.598 10.98,1.598 4.1,0 7.77,-0.547 11.05,-1.598 3.29,-1.058 6.1,-2.539 8.44,-4.5 2.35,-1.949 4.18,-4.289 5.47,-7.07 1.33,-2.73 2.03,-5.82 2.15,-9.14 z"
       style="fill:#eaaa00;fill-opacity:1;fill-rule:nonzero;stroke:none"
       transform="matrix(0.13333333,0,0,-0.13333333,0,66.666667)" />
    <path
       id="path18"
       d="m 2147.93,74.8789 v 12.0703 l 35.31,43.9918 h -34.26 v 11.868 h 52.07 V 131.68 l -35.5,-44.7308 h 35.5 V 74.8789 Z"
       style="fill:#eaaa00;fill-opacity:1;fill-rule:nonzero;stroke:none"
       transform="matrix(0.13333333,0,0,-0.13333333,0,66.666667)" />
    <path
       id="path19"
       d="m 2232.27,74.8789 v 67.9301 h 49.92 v -11.868 h -36.14 V 116.41 h 33.29 v -11.961 h -33.29 V 86.9492 h 37.78 V 74.8789 Z"
       style="fill:#eaaa00;fill-opacity:1;fill-rule:nonzero;stroke:none"
       transform="matrix(0.13333333,0,0,-0.13333333,0,66.666667)" />
    <path
       id="path20"
       d="M 2328.48,131.051 V 112.93 h 17.81 c 3.83,0 6.52,0.859 8.09,2.582 1.56,1.679 2.34,3.828 2.34,6.437 0,2.66 -0.74,4.852 -2.31,6.531 -1.52,1.719 -4.06,2.571 -7.61,2.571 z m 25.82,-56.1721 v 17.5 c 0,3.2813 -0.78,5.5899 -2.27,7 -1.48,1.4021 -4.3,2.1011 -8.4,2.1011 h -15.15 V 74.8789 h -13.79 v 67.9301 h 34.49 c 3.12,0 5.98,-0.469 8.52,-1.481 2.57,-0.976 4.76,-2.348 6.6,-4.098 1.83,-1.718 3.28,-3.789 4.25,-6.21 0.98,-2.43 1.49,-5.04 1.49,-7.86 0,-3.672 -0.86,-6.91 -2.62,-9.762 -1.72,-2.808 -4.26,-4.808 -7.5,-5.976 2.97,-0.973 5.12,-2.422 6.37,-4.41 1.29,-1.961 1.91,-4.9222 1.91,-8.9104 V 74.8789 Z"
       style="fill:#eaaa00;fill-opacity:1;fill-rule:nonzero;stroke:none"
       transform="matrix(0.13333333,0,0,-0.13333333,0,66.666667)" />
    <path
       id="path21"
       d="m 2401.91,74.8789 v 67.9301 h 49.93 V 130.941 H 2415.7 V 116.41 h 33.28 V 104.449 H 2415.7 V 86.9492 h 37.78 V 74.8789 Z"
       style="fill:#eaaa00;fill-opacity:1;fill-rule:nonzero;stroke:none"
       transform="matrix(0.13333333,0,0,-0.13333333,0,66.666667)" />
    <path
       id="path22"
       d="m 2483.98,74.8789 v 67.9301 h 14.22 V 87.2695 h 33.68 V 74.8789 Z"
       style="fill:#eaaa00;fill-opacity:1;fill-rule:nonzero;stroke:none"
       transform="matrix(0.13333333,0,0,-0.13333333,0,66.666667)" />
    <path
       id="path23"
       d="m 2562.93,74.8789 v 67.9301 h 49.92 v -11.868 h -36.09 V 116.41 H 2610 v -11.961 h -33.24 V 86.9492 h 37.73 V 74.8789 Z m 17.81,74.3011 -3.16,5.621 21.17,12.39 4.8,-8.402 z"
       style="fill:#eaaa00;fill-opacity:1;fill-rule:nonzero;stroke:none"
       transform="matrix(0.13333333,0,0,-0.13333333,0,66.666667)" />
    <path
       id="path24"
       d="m 2683.71,122.77 c -0.35,3.48 -1.6,6.058 -3.79,7.781 -2.19,1.719 -5.47,2.539 -9.84,2.539 -8.05,0 -12.07,-2.738 -12.07,-8.289 0,-1.949 0.86,-3.629 2.5,-4.961 1.68,-1.32 4.37,-2.418 8.04,-3.32 4.38,-1.008 8.17,-1.989 11.37,-2.848 3.2,-0.902 6.13,-1.91 8.79,-3.082 1.49,-0.629 2.93,-1.371 4.26,-2.309 1.33,-0.902 2.46,-2.07 3.36,-3.441 0.94,-1.36 1.64,-2.961 2.19,-4.8791 0.54,-1.9101 0.82,-4.2617 0.82,-6.9492 0,-3.2812 -0.67,-6.2109 -2.04,-8.7109 -1.36,-2.5391 -3.2,-4.6524 -5.5,-6.4102 -2.35,-1.7187 -5.08,-3.0508 -8.21,-3.9804 -3.12,-0.9414 -6.44,-1.3711 -9.92,-1.3711 -9.88,0 -17.34,1.8711 -22.3,5.6992 -5,3.832 -7.62,9.4922 -7.89,16.9922 h 13.71 c 0.08,-3.4688 1.48,-6.211 4.26,-8.2422 2.77,-1.9883 6.21,-3.0078 10.39,-3.0078 4.49,0 7.89,0.8203 10.23,2.4687 2.31,1.6406 3.48,3.8594 3.48,6.6406 0,1.0899 -0.16,2.1094 -0.43,3 -0.28,0.9415 -0.78,1.7618 -1.57,2.5391 -0.78,0.75 -1.87,1.4101 -3.24,1.9921 -1.36,0.59 -3.12,1.098 -5.31,1.57 -5.2,1.09 -9.69,2.219 -13.48,3.321 -3.75,1.129 -6.87,2.539 -9.33,4.218 -2.46,1.68 -4.26,3.711 -5.43,6.09 -1.17,2.379 -1.76,5.391 -1.76,9.102 0,2.777 0.55,5.43 1.56,7.887 1.02,2.421 2.58,4.57 4.69,6.371 2.11,1.84 4.73,3.242 7.85,4.3 3.09,1.051 6.76,1.598 10.98,1.598 4.1,0 7.77,-0.547 11.05,-1.598 3.28,-1.058 6.1,-2.539 8.44,-4.5 2.38,-1.949 4.18,-4.289 5.47,-7.07 1.33,-2.73 2.03,-5.82 2.15,-9.14 z"
       style="fill:#eaaa00;fill-opacity:1;fill-rule:nonzero;stroke:none"
       transform="matrix(0.13333333,0,0,-0.13333333,0,66.666667)" />
    <path
       id="path25"
       d="M 691.129,431.172 V 276.68 H 805 V 254.77 H 669.219 v 176.402 z"
       style="fill:#eaaa00;fill-opacity:1;fill-rule:nonzero;stroke:none"
       transform="matrix(0.13333333,0,0,-0.13333333,0,66.666667)" />
    <path
       id="path26"
       d="m 865.199,276.68 h 40.699 c 20.274,0 37.5,6.48 51.801,19.41 14.332,13.051 21.52,28.68 21.52,46.879 0,18.281 -7.188,33.941 -21.52,46.992 -14.301,12.93 -31.527,19.418 -51.801,19.418 H 865.199 Z M 843.32,254.77 v 176.519 h 62.578 c 26.25,0 48.672,-8.629 67.262,-25.82 18.641,-17.309 27.93,-38.168 27.93,-62.5 0,-24.258 -9.289,-45.039 -27.93,-62.348 -18.59,-17.223 -41.012,-25.851 -67.262,-25.851 z"
       style="fill:#eaaa00;fill-opacity:1;fill-rule:nonzero;stroke:none"
       transform="matrix(0.13333333,0,0,-0.13333333,0,66.666667)" />
    <path
       id="path27"
       d="m 1293.79,431.289 -77.62,-176.519 -20.15,0.39 -68.64,176.129 h 23.71 l 55.63,-143.277 62.11,143.277 z"
       style="fill:#eaaa00;fill-opacity:1;fill-rule:nonzero;stroke:none"
       transform="matrix(0.13333333,0,0,-0.13333333,0,66.666667)" />
    <path
       id="path28"
       d="m 1332.07,254.77 h 21.9102 V 431.29 H 1332.07 Z"
       style="fill:#eaaa00;fill-opacity:1;fill-rule:nonzero;stroke:none"
       transform="matrix(0.13333333,0,0,-0.13333333,0,66.666667)" />
    <path
       id="path29"
       d="M 1414.02,431.172 V 276.68 h 113.91 v -21.91 h -135.78 v 176.402 z"
       style="fill:#eaaa00;fill-opacity:1;fill-rule:nonzero;stroke:none"
       transform="matrix(0.13333333,0,0,-0.13333333,0,66.666667)" />
    <path
       id="path30"
       d="M 1588.12,431.172 V 276.68 h 113.87 v -21.91 h -135.78 v 176.402 z"
       style="fill:#eaaa00;fill-opacity:1;fill-rule:nonzero;stroke:none"
       transform="matrix(0.13333333,0,0,-0.13333333,0,66.666667)" />
    <path
       id="path31"
       d="m 1794.02,252.93 c -12.93,1.25 -25.04,4.879 -36.25,10.941 l -9.72,5.188 10.31,19.3 9.73,-5.16 c 8.71,-4.609 18.04,-7.379 28.04,-8.359 19.42,-1.91 35.2,1.101 47.35,8.988 6.05,4.492 9.41,9.723 9.96,15.742 0.51,4.879 -1.8,10.2 -6.88,15.86 -7.46,7.031 -21.29,12.769 -41.44,17.23 h -0.28 c -24.18,5.621 -41.17,13.281 -51.01,22.852 l -0.51,0.508 c -5.98,6.558 -9.88,12.769 -11.68,18.671 -1.21,4.02 -1.6,8.75 -1.09,14.137 1.21,12.652 7.61,23.16 19.18,31.641 l 0.35,0.351 c 16.48,10.821 37.07,15.039 61.76,12.66 12.22,-1.21 23.71,-4.531 34.45,-9.96 l 9.84,-4.93 -9.84,-19.531 -9.84,4.921 c -8.36,4.18 -17.27,6.719 -26.72,7.622 -19.42,1.878 -35.2,-1.09 -47.35,-8.981 -6.05,-4.5 -9.37,-9.769 -9.96,-15.742 -0.47,-4.93 1.84,-10.199 7.03,-15.859 6.96,-6.641 20.35,-12.309 40.2,-17 24.61,-5.309 42.07,-13 52.42,-23.122 l 0.47,-0.468 c 5.98,-6.559 9.88,-12.809 11.68,-18.711 1.25,-4.02 1.6,-8.707 1.13,-14.141 -1.25,-12.699 -7.62,-23.277 -19.06,-31.719 l -0.51,-0.238 c -13.44,-8.859 -29.73,-13.32 -48.83,-13.32 -4.18,0 -8.47,0.238 -12.93,0.629 z"
       style="fill:#eaaa00;fill-opacity:1;fill-rule:nonzero;stroke:none"
       transform="matrix(0.13333333,0,0,-0.13333333,0,66.666667)" />
    <path
       id="path32"
       d="M 2067.11,431.172 V 416.289 L 1948.95,276.68 h 118.16 v -21.91 h -152.73 v 15.152 l 118.2,139.34 h -118.2 v 21.91 z"
       style="fill:#eaaa00;fill-opacity:1;fill-rule:nonzero;stroke:none"
       transform="matrix(0.13333333,0,0,-0.13333333,0,66.666667)" />
    <path
       id="path33"
       d="m 2241.68,431.172 v -21.91 H 2127.81 V 353.91 h 113.87 V 332.031 H 2127.81 V 276.68 h 113.87 V 254.77 H 2105.9 v 176.402 z"
       style="fill:#eaaa00;fill-opacity:1;fill-rule:nonzero;stroke:none"
       transform="matrix(0.13333333,0,0,-0.13333333,0,66.666667)" />
    <path
       id="path34"
       d="m 2301.88,353.91 h 78.98 c 7.62,0 14.1,2.731 19.41,8.121 5.43,5.43 8.13,11.918 8.13,19.571 0,7.617 -2.7,14.136 -8.13,19.527 -5.31,5.43 -11.79,8.133 -19.41,8.133 h -78.98 z m 113.9,62.731 c 9.77,-9.692 14.61,-21.371 14.61,-35.039 0,-11.832 -3.75,-22.262 -11.29,-31.372 -7.38,-9.019 -16.72,-14.718 -28.05,-17.109 l 39.34,-78.351 h -24.69 l -38.63,77.261 h -65.19 V 254.77 H 2280 v 176.402 h 100.86 c 13.59,0 25.23,-4.844 34.92,-14.531 z"
       style="fill:#eaaa00;fill-opacity:1;fill-rule:nonzero;stroke:none"
       transform="matrix(0.13333333,0,0,-0.13333333,0,66.666667)" />
    <path
       id="path35"
       d="m 2733.16,431.172 -103.67,-88.203 103.67,-88.199 h -34.06 l -86.44,73.82 -34.34,-29.289 V 254.77 h -21.87 v 176.402 h 21.87 V 328.09 l 120.78,103.082 z"
       style="fill:#eaaa00;fill-opacity:1;fill-rule:nonzero;stroke:none"
       transform="matrix(0.13333333,0,0,-0.13333333,0,66.666667)" />
    <path
       id="path36"
       d="m 2906.64,431.172 v -21.91 H 2792.73 V 353.91 h 113.91 V 332.031 H 2792.73 V 254.77 h -21.87 v 176.402 z"
       style="fill:#eaaa00;fill-opacity:1;fill-rule:nonzero;stroke:none"
       transform="matrix(0.13333333,0,0,-0.13333333,0,66.666667)" />
    <path
       id="path37"
       d="m 3097.42,431.172 v -21.91 h -65.27 V 254.77 h -21.92 v 154.492 h -65.31 v 21.91 z"
       style="fill:#eaaa00;fill-opacity:1;fill-rule:nonzero;stroke:none"
       transform="matrix(0.13333333,0,0,-0.13333333,0,66.666667)" />
    <path
       id="path38"
       d="m 3133.01,254.762 h 16.9883 v 20.9375 H 3133.01 Z"
       style="fill:#eaaa00;fill-opacity:1;fill-rule:nonzero;stroke:none"
       transform="matrix(0.13333333,0,0,-0.13333333,0,66.666667)" />
    <path
       id="path39"
       d="M 300.469,500 H 109.02 L 0,227.461 H 111.449 L 8.39844,6.64063 296.52,326.289 H 176.641 Z M 281.602,169.961 h -52.114 c -9.566,0 -17.34,7.769 -17.34,17.379 0,9.609 7.774,17.39 17.34,17.39 h 52.114 v 17.34 h 69.488 c 9.609,0 17.39,-7.769 17.39,-17.34 v -34.57 c 28.551,2.461 51.008,28.668 51.008,60.621 0,33.559 -24.797,60.778 -55.429,60.778 h -87.418 l 29.808,34.73 h 62.031 c 47.969,0 86.829,-42.769 86.829,-95.508 0,-52.769 -38.86,-95.551 -86.829,-95.551 v -34.761 c 0,-9.5706 -7.781,-17.3479 -17.39,-17.3479 h -69.488 v 17.3479 h -52.114 c -9.566,0 -17.34,7.812 -17.34,17.383 0,9.609 7.774,17.378 17.34,17.378 h 52.114 z"
       style="fill:#eaaa00;fill-opacity:1;fill-rule:evenodd;stroke:none"
       transform="matrix(0.13333333,0,0,-0.13333333,0,66.666667)" />
  </g>
</svg>
